<svg xmlns="http://www.w3.org/2000/svg" height="1024" preserveAspectRatio="xMidYMid meet" style="display:block" viewBox="0 0 2048 2048" width="1024"><path d="M1937.58 1139.86c1.41 2.52.58 5.77.15 9.03-29.07 226.49-146.63 432.26-326.97 572.33-24.89-1.01-63.44-6.96-89.27-9.83-81.12-9-160.31-19.25-241.73-26.56a3017 3017 0 0 1-41.39-5.2c54.71-29.62 116.78-59.12 171.43-89.72 11.82-6.62 40.94-34.25 52.56-44.24l93-79.05 258.88-220.86c40.7-34.94 82.24-71.55 123.34-105.9" fill="#ebeced"/><path d="M380.026 1244.72c7.701 6.64 40.192 55.28 48.467 66.76l152.583 212.56a7193 7193 0 0 0 279.896 375.75c-15.333-2.91-31.263-7.49-46.422-11.53-48.837-14.84-100.402-33.03-146.702-54.57a896.9 896.9 0 0 1-283.514-212.02c-20.283-22.5-45.366-50.3-62.544-74.91l44.292-226.91c4.911-24.44 8.384-51.6 13.944-75.13" fill="#a8b7c6"/><path d="M710.211 1622.24c24.263 4.34 60.277 14.18 84.638 20.08a6176 6176 0 0 0 112.502 25.26c72.968 15.94 148.799 32.49 221.939 46.91l155.41 29.14a3800 3800 0 0 0 166.53 29.06c23.8 3.39 49.72 7.38 73.57 8.58-28.53 18.06-62.05 34.86-92.42 49.74a897.3 897.3 0 0 1-422.95 89.16c-16.082-.71-36.226-1.37-51.979-3.35l-173.657-206.38-48.151-57.22c-6.447-7.64-20.287-23.14-25.432-30.98" fill="#677e96"/><path d="M197.026 726.721c4.707 4.615 17.58 21.698 22.295 27.71l39.631 50.317q56.85 73.982 114.789 147.117l-50.12 267.435a7960 7960 0 0 0-27.647 142.68c-4.18 22.35-9.827 48.9-12.762 71.06-2.379 14.36-4.078 30.33-5.903 44.88-14.603-21.79-38.947-71.8-49.858-96.1-89.34-198.95-108.781-449.476-30.425-655.099m869.794 6.041c6.82.172 20.66 3.642 27.76 5.318-.98 13.704-7.19 45.426-9.67 60.376l-16.42 103.565c63.39.574 127.1-.48 190.51-.215.45 21.384-.07 44.828-.15 66.364-33.03 15.231-67.82 27.497-101.34 41.67-17.2 7.28-35.1 12.97-52.2 20.42l-6.82-3.32c-20.99-11.67-45.47-28.534-65.6-41.952l-79.864-52.699-48.007-30.987c-9.025-5.809-22.39-14.07-30.374-20.834 13.125-12.059 43.6-33.593 59.237-45.649z" fill="#a8b7c6"/><path d="M619.092 1188.66c2.444 2.39 14.277 20.33 16.952 24.14l42.84 60.6a6151 6151 0 0 1 148.687 218.38c22.955 34.68 46.037 68 68.055 103.41l-19.384-6.63c-21.167-7.13-40.574-13.86-61.046-22.86-83.986-36.91-157.93-98.09-218.424-166.51 2.079-30.39 7.166-63.49 10.102-94.13 3.713-38.74 7.171-77.87 12.218-116.4" fill="#677e96"/><path d="M1197.65 458.623c10.89.808 51.77 17.312 63.05 21.686 66.26 25.684 116.37 50.276 172.83 93.179a470 470 0 0 1 28.98 23.731c7.84 6.971 16.06 15.093 24.6 21.073-3.43 74.267-6.17 153.69-11.7 227.463-.39 3.789-.45 9.762-.63 13.735a6224 6224 0 0 0-161.73-236.043c-17.26-23.916-34.29-48.044-51.51-72.005-20.66-28.731-46.57-62.155-63.89-92.819" fill="#a8b7c6"/><path d="M1041.35 442.447c31-1.486 63.12 1.057 93.87 4.826 5.96 9.67 17.13 23.26 24.35 32.432l37.67 48.108c25.56 32.756 55.59 74.581 81.85 105.446-13.44-2.815-40.74-12.525-55.12-16.882l-118.69-35.868c-22.29-5.994-47.04-14.056-69.3-20.792l-114.206-34.535c-35.893-11.132-71.593-22.834-107.815-32.986 14.593-7.072 33.73-13.123 49.256-18.194 60.802-19.859 114.405-28.999 178.135-31.555" fill="#4b617a"/><path d="M458.305 291.472a10629 10629 0 0 1 252.035 42.287c-13.894 24.813-31.682 49.885-47.45 73.782a9842 9842 0 0 0-93.19 141.834 437 437 0 0 0 3.594-15.154c8.697-39.667 19.672-78.349 26.834-118.354-35.621 14.373-77.437 35.812-107.988 59.287-97.443 74.875-140.555 215.692-111.488 333.56l-1.97 1.518c-1.682-5.584-4.581-12.375-6.792-17.871-26.244-65.223-29.52-141.873-8.383-209.635a359.05 359.05 0 0 1 139.785-186.745c21.238-14.611 46.969-28.271 69.835-40.212a5606 5606 0 0 0-114.822-64.297" fill="#e76d5c"/><path d="M819.048 1416.62c5.902.86 32.21 11.16 39.339 13.89 21.534 8.41 43.191 16.5 64.965 24.26 80.488 28.78 160.238 58.71 241.858 84.14 37.81 11.79 79.56 26.97 117.76 35.86-10.88 3.36-21.79 6.61-32.74 9.75-91.14 33.23-201.8 35.87-296.928 24.73-30.801-46.19-64.069-91.26-95.104-137.35-12.484-18.54-25.747-37.4-39.15-55.28M1643.4 973.853l.77.642c1.31 6.352.88 35.985.89 43.575.16 90.89-14.22 162.48-46.2 246.53-8.49 4.9-25.09 11.47-34.64 15.54l-62.19 26.48c-45.28 19.49-91.57 41.92-136.54 60.8l-.63.09-.18-1.5c5.14-9.07 20.91-30.13 27.92-40.42 27.16-39.9 54.84-79.45 83.03-118.63a6932 6932 0 0 1 119.33-165.79c15.21-20.83 32.74-48.449 48.44-67.317" fill="#a8b7c6"/><path d="m1573.53 1318.83 1.76.49c-.52 2.66-16.05 25.07-19.08 29.52-44.35 65.15-102.92 120.61-166.71 166.48-13.82 9.94-28.6 19.3-42.72 29.07-17.74-2.12-43.91-8.71-61.75-12.39-41.09-8.47-81.39-19.18-121.95-29.81-6.21-1.76-43.85-11.83-45.74-14.14 4.08-4.62 233.63-78.92 261.22-89.95 58.75-23.51 135.64-55.18 194.97-79.27m-47.48-660.228c3.5 3.387 18.1 26.468 21.33 31.739 42.38 69.161 69.19 133.143 91.76 210.323a10589 10589 0 0 1-102.19 154.596c-16.15 25.03-30.5 43.83-45.17 70.49 1.42-38.49 5.31-81.83 8.38-120.39l13.81-171.947c4.66-56.953 6.4-118.868 12.08-174.811M613.964 893.835c.393 3.123-2.439 22.533-3.035 27.469-2.594 21.457-5.551 42.976-7.953 64.47l-26.148 228.176c-4.468 41.08-8.272 96.85-15.064 137.02-9.43-18.49-22.603-43.79-30.263-62.72-18.746-44.4-35.749-86.35-45.808-133.63-7.089-33.31-14.589-64.62-15.89-98.91 39.539-43.53 77.612-88.792 117.171-132.356 8.949-9.855 17.358-20.319 26.99-29.519" fill="#677e96"/><path d="M748.278 524.823c5.802.127 39.285 7.715 46.698 9.332 66.779 14.559 132.536 33.283 199.164 49.072-21.393 8.221-47.448 13.927-69.652 21.656-56.492 19.663-113.122 36.873-170.674 53.07-63.61 18.452-129.304 34.943-193.317 52.994 51.394-80.68 111.919-130.679 187.781-186.124m345.262 526.597c3.06-.8 7.47 3.54 9.76 5.54 19.5 16.98 38.68 34.21 58.63 50.66l42.63 35.04c8.71 7.16 17.69 14.09 25.53 22.21 2.23 2.32 4.79 10.24 1.93 12.2-3.26 2.24-13.31 3.16-17.54 2.9-24.55-1.47-49.13-3.96-73.65-6.12-45.29-3.7-90.55-7.89-135.76-12.57l-75.489-7.12c-15.774-1.5-35.693-2.85-50.838-6.24-8.444-13.72-30.598-56.8-37.047-71.34 13.383-1.99 32.204-2.88 45.998-3.97l74.527-6.24c43.589-3.77 87.689-10.02 131.319-14.95" fill="#a8b7c6"/><path d="M895.485 158.413c117.025-.033 152.305 181.921 15.769 206.31-22.083 3.172-46.127 5.062-68.548 7.707-3.052-17.121-5.022-38.834-7.319-56.43l-10.279-73.506c-3.337-24.935-6.181-49.733-10.459-74.535 25.983-3.273 54.738-8.12 80.836-9.546" fill="#4b617a"/><path d="M884.599 177.412c14.815-2.308 34.368 2.184 47.796 8.099 26.653 11.918 39.999 34.684 45.403 62.433 8.454 43.408-10.858 81.087-53.545 95.478-18.244 5.597-45.726 6.873-65.537 8.435l-22.088-169.575c14.596-.826 33.222-3.288 47.971-4.87" fill="#fff"/><path d="m757.868 693.162 1.061.709c-.853 5.592-260.965 274.79-290.889 310.929l-.928-1.26c-4.185-66.545 28.07-187.628 64.094-243.815 11.619-5.433 63.959-19.337 78.933-23.565a9653 9653 0 0 0 147.729-42.998" fill="#4b617a"/><path d="M888.279 1171.86c50.772 3.31 104.838 11.28 155.411 17.89 52.19 6.54 104.43 12.73 156.71 18.56-5.3 5.32-13.61 11.99-19.43 17.21a3752 3752 0 0 1-37.53 33.69c-13.23 12.03-46.46 43.07-59.7 52.1l-91.318.09c-6.444.02-30.557 1.04-34.657.56-11.714-14.03-37.619-75.41-48.099-95.55-4.611-8.87-17.536-35.33-21.387-44.55" fill="#a8b7c6"/><path d="M1426.63 217.901c30.37 19.036 77.9 30.224 97.34 58.794a61.05 61.05 0 0 1 9.1 45.874c-4.91 24.648-25.34 46.157-49.97 51.355-10.45 2.205-18.44.816-28.54-1.311.85 28.4 8.3 70.98 10.95 100.967-6.28-2.901-12.85-6.271-19.1-9.345-3.11-15.486-5.38-41.815-7.24-57.997-1.17-14.384-3.54-31.091-5.28-45.523-17.37-7.434-30.27-13.078-46.81-22.265a5506 5506 0 0 1-38.86 78.798c-5.83-2.448-11.4-5.502-17.01-8.426 12.33-21.935 24.65-49.027 35.84-71.739z" fill="#4b617a"/><path d="M1434.47 242.813c17.25 7.877 35.38 16.097 52.04 24.983 12.31 6.558 23.68 18.34 27.1 32.076 3.08 12.362-.21 24.881-6.74 35.626-7.34 12.058-15.61 16.312-28.72 19.382-2.3.266-9.97 1.238-11.79.683-21.84-6.663-50.34-21.933-70.86-31.803 9.59-22.584 27.63-58.521 38.97-80.947" fill="#fff"/><path d="M1843.11 922.322c27.23-2.603 54.68 4.848 71.83 27.481a69.08 69.08 0 0 1 12.93 50.707c-2.73 19.02-12.35 30.49-26.96 41.57 27.67.27 58.65-2.11 87.14-2.48l.07 19.22c-19.6-.3-39.8.17-59.44.4l-139.69 3.79c-.22-4.69-.8-9.5-1.27-14.18 7.9-.67 15.81-1.22 23.73-1.67-16.94-13.08-28.38-23.57-31.84-45.66-6.96-44.486 22.12-72.757 63.5-79.178" fill="#4b617a"/><path d="M1846.59 941.306c41.88-6.386 84.54 36.496 58.12 77.304-10.17 15.72-23.28 21.66-40.67 25.2-15.34 1.99-32.64.15-45.84-8.43a51.34 51.34 0 0 1-22.16-33.83 51.44 51.44 0 0 1 9.13-38.47c10.37-14.008 25.07-19.144 41.42-21.774" fill="#fff"/><path d="M1094.59 214.118c40.01-6.44 77.68 20.728 84.19 60.723 6.52 39.995-20.58 77.714-60.56 84.305-40.09 6.608-77.93-20.577-84.47-60.679-6.53-40.101 20.73-77.892 60.84-84.349" fill="#4b617a"/><path d="M1100.58 229.269a53.34 53.34 0 0 1 32.75 7.534c41.63 25.788 32.08 96.222-19.07 106.278-31.64 3.347-55.38-15.496-60.47-46.553a61.2 61.2 0 0 1 10.67-45.634c9.44-13.094 20.62-19.043 36.12-21.625" fill="#fff"/><path d="M903.743 933.508c11.832 2.083 132.247 82.782 146.957 94.592-18.2 4.41-66.226 10.08-86.844 12.77-36.633 6.28-94.227 14.74-130.394 17.26.245-8.23.143-15.12-.144-23.36 4.001-6.75 10.195-14.47 14.617-21.23 17.63-26.976 38.676-52.982 55.808-80.032m75.421-197.006c14.197-.337 28.286-.765 42.486-.521-10.55 11.151-36.761 30.179-49.624 40.041-34.637 26.555-70.736 51.911-105.518 78.249-5.097 4.048-8.442 6.273-13.941 9.763-6.643-4.055-12.688-8.196-19.114-12.594q.434-41.951.203-83.905c12.946-10.212 26.668-19.992 39.825-30.263z" fill="#a8b7c6"/><path d="M1570.45 392.28c18.32-1.8 38.21 4.096 52.29 16.037a67.24 67.24 0 0 1 23.28 46.674c1.51 22.55-7.82 43.457-22.56 60.091-24.79-24.658-64.23-57.639-91.27-80.846-12.74 16.624-17.69 29.877-13.7 51.016 12.45 31.979 38.88 45.882 72.19 33.696l8.47 15.76c-5.62 1.974-10.76 3.49-16.65 4.542a68.72 68.72 0 0 1-51.81-11.454c-33.79-23.636-42.04-66.331-17.75-100.105a87.32 87.32 0 0 1 57.51-35.411" fill="#4b617a"/><path d="M1571.89 410.273c34.02-2.186 62.25 22.4 57.09 57.729-1.23 8.37-5.73 16.168-9.48 23.64-3.24-3.017-6.46-6.053-9.67-9.108-18.61-15.529-34.36-30.562-54.08-45.892a150 150 0 0 1-14-12.122c8.79-7.841 18.7-11.863 30.14-14.247" fill="#fff"/><path d="m1255.86 991.858 1.05.943c2.95 7.899 4.51 143.959 4.59 161.159-14.45-6.86-42.51-31.78-56.03-43.2a807 807 0 0 1-40.44-36c-3.77-3.61-9.15-8.01-9.25-13.04 4.86-9.7 34.81-28.06 45.56-34.9 16.27-10.35 37.41-27.719 54.52-34.962" fill="#a8b7c6"/><path d="M1698.89 475.746c1.48 1.337 9.64 11.216 11.7 13.546a4194 4194 0 0 0-66.87 109.808c39.6-13.179 78.46-28.179 118.39-41.028l5.85 7.82c-5.1 9.446-15.79 25.283-21.78 34.708-15.32 24.21-30.9 48.26-46.73 72.145 37.16-9.652 81.16-26.346 119.28-37.427 4.25 5.13 7.27 8.934 11.08 14.398-5.29 2.069-12.01 3.979-17.55 5.71a10905 10905 0 0 0-129.56 40.129l-8.87-10.931c19.04-34.865 45.67-69.426 65.94-103.894-37.27 14.778-75 28.366-113.14 40.742l-9.92-10.577c24.54-39.119 46.45-79.652 71.3-118.569 3.61-5.654 6.9-11.141 10.88-16.58" fill="#4b617a"/><path d="M1121.67 741.608c1.77.125 6.75.489 8 1.58 41.32 35.853 77.52 77.411 118.85 113.213 1.26 1.089 1.71 2.142 2.33 3.609.24 3.884.03 3.793-1.77 7.08-9.71 1.052-37.15.671-47.97.529-22.48-.296-50.84 1.345-72.66-.244-2.01-11.226-3.45-41.302-4.01-53.638-.94-20.609-4.3-52.412-2.77-72.129M834.751 1115.73c5.551 5.98 84.99 186.77 86.632 195.99-20.102-.35-40.207-.59-60.312-.71-8.432-10.7-20.608-22.67-27.255-31.73-.441-35.45.483-71.72.043-107.28-.123-9.91-.486-49.37.892-56.27" fill="#a8b7c6"/><path d="M1869.97 754.127c2.52 1.725 4.84 12.335 5.84 15.885l-24.6 7.127c18.67 8.023 36.36 19.45 42.57 40.305 6.84 22.968.61 44.915-21.47 56.829-15.06 8.123-31.54 11.63-47.58 17.312-17.67 6.06-35.27 12.541-53.05 18.215l-6.47-17.294c23.16-9.155 52.79-18.444 76.58-26.492 11.27-3.851 27.37-8.875 33.56-19.725 14.03-23.763-13.35-61.865-39.53-59.915-15.93 1.187-36.01 9.455-51.5 14.383-14.17 4.508-28.05 9.528-42.38 13.762-1.9-4.594-4.08-11.78-5.7-16.643 14.04-5.334 32.31-10.829 46.78-15.591 28.91-9.603 57.9-18.99 86.95-28.158M1268.7 239.381c22.71-1.594 45.76 8.965 58.3 28.044 7.8 11.863 9.48 20.487 11.45 34.249l-17.92 1.263c-2.78-20.06-10.65-35.437-30.66-43.153a48.53 48.53 0 0 0-38.69 1.516c-41.82 20.288-48.75 93.777 6.15 109.775 23.14 2.757 34.6-2.697 49.22-20.329 4.66 4.22 9.33 8.686 13.93 12.985-11.47 12.981-24.81 23.127-42.49 25.325a71.12 71.12 0 0 1-51.77-14.513c-49.47-39.215-24.83-128.688 42.48-135.162" fill="#4b617a"/><path d="M1260.71 1214.53c.94.54 1.62 1.29 2.45 2.05.98 5.84.53 22.21.44 28.93-.24 17.37.87 36.74-.41 53.88-3.28 3.29-11.6 9.69-15.54 12.88-26.21 1.02-60.95-.1-87.9-.29l-2.84-.24-.36-1.43c12.31-14.32 38.81-36.66 53.42-50.58 9.55-9.11 41.12-38.86 50.74-45.2" fill="#e76d5c"/><path d="M837.634 883.489c5.408 1.886 55.627 29.898 54.359 35.024-1.313 5.303-20.335 20.13-26.521 25.629-8.702 8.503-19.902 18.804-29.268 26.419-.778-12.315-2.497-79.355 1.43-87.072" fill="#a8b7c6"/><path d="m1845.71 687.051 1.74.461c2.63 4.645 4.11 10.687 5.69 15.893-6.83 3.129-13.78 6.138-20.76 8.926-37.1 14.825-73.84 31.188-111.06 45.623-3-2.365-6.09-11.869-7.59-15.803 16.53-8.359 41.56-18.075 59.08-25.24a5556 5556 0 0 1 72.9-29.86m40.48-22.301c6.92-2.915 14.89.371 17.74 7.316s-.5 14.884-7.48 17.675c-6.88 2.755-14.69-.552-17.51-7.409-2.82-6.858.42-14.704 7.25-17.582" fill="#4b617a"/><path d="M380.652 808.714c.282 1.328 1.145 4.107.844 5.389l-.151.167c-1.168-.151-2.254-3.231-2.663-4.038z" fill="#e2a39f"/></svg>